solid OpenSCAD_Model
  facet normal 0.994522 0.104528 0
    outer loop
      vertex 4.5977 0 22.98
      vertex 4.49723 0.955915 0
      vertex 4.49723 0.955915 22.98
    endloop
  endfacet
  facet normal 0.994522 0.104528 0
    outer loop
      vertex 4.49723 0.955915 0
      vertex 4.5977 0 22.98
      vertex 4.5977 0 0
    endloop
  endfacet
  facet normal -0.994522 0.104528 0
    outer loop
      vertex -4.5977 0 0
      vertex -4.49723 0.955915 22.98
      vertex -4.49723 0.955915 0
    endloop
  endfacet
  facet normal -0.994522 0.104528 0
    outer loop
      vertex -4.49723 0.955915 22.98
      vertex -4.5977 0 0
      vertex -4.5977 0 22.98
    endloop
  endfacet
  facet normal 0 1 -0
    outer loop
      vertex 0.48059 4.57251 0
      vertex -0.48059 4.57251 22.98
      vertex 0.48059 4.57251 22.98
    endloop
  endfacet
  facet normal 0 1 0
    outer loop
      vertex -0.48059 4.57251 22.98
      vertex 0.48059 4.57251 0
      vertex -0.48059 4.57251 0
    endloop
  endfacet
  facet normal 0 -1 0
    outer loop
      vertex -0.48059 -4.57251 0
      vertex 0.48059 -4.57251 22.98
      vertex -0.48059 -4.57251 22.98
    endloop
  endfacet
  facet normal 0 -1 -0
    outer loop
      vertex 0.48059 -4.57251 22.98
      vertex -0.48059 -4.57251 0
      vertex 0.48059 -4.57251 0
    endloop
  endfacet
  facet normal 0.587781 0.80902 -0
    outer loop
      vertex 3.07646 3.41676 0
      vertex 2.29885 3.98172 22.98
      vertex 3.07646 3.41676 22.98
    endloop
  endfacet
  facet normal 0.587781 0.80902 0
    outer loop
      vertex 2.29885 3.98172 22.98
      vertex 3.07646 3.41676 0
      vertex 2.29885 3.98172 0
    endloop
  endfacet
  facet normal 0.40674 0.913544 -0
    outer loop
      vertex 2.29885 3.98172 0
      vertex 1.42077 4.37267 22.98
      vertex 2.29885 3.98172 22.98
    endloop
  endfacet
  facet normal 0.40674 0.913544 0
    outer loop
      vertex 1.42077 4.37267 22.98
      vertex 2.29885 3.98172 0
      vertex 1.42077 4.37267 0
    endloop
  endfacet
  facet normal -0.587781 0.80902 0
    outer loop
      vertex -2.29885 3.98172 0
      vertex -3.07646 3.41676 22.98
      vertex -2.29885 3.98172 22.98
    endloop
  endfacet
  facet normal -0.587781 0.80902 0
    outer loop
      vertex -3.07646 3.41676 22.98
      vertex -2.29885 3.98172 0
      vertex -3.07646 3.41676 0
    endloop
  endfacet
  facet normal -0.20791 0.978148 0
    outer loop
      vertex -0.48059 4.57251 0
      vertex -1.42077 4.37267 22.98
      vertex -0.48059 4.57251 22.98
    endloop
  endfacet
  facet normal -0.20791 0.978148 0
    outer loop
      vertex -1.42077 4.37267 22.98
      vertex -0.48059 4.57251 0
      vertex -1.42077 4.37267 0
    endloop
  endfacet
  facet normal 0.866026 -0.499998 0
    outer loop
      vertex 3.71962 -2.70246 22.98
      vertex 4.20021 -1.87005 0
      vertex 4.20021 -1.87005 22.98
    endloop
  endfacet
  facet normal 0.866026 -0.499998 0
    outer loop
      vertex 4.20021 -1.87005 0
      vertex 3.71962 -2.70246 22.98
      vertex 3.71962 -2.70246 0
    endloop
  endfacet
  facet normal 0.866026 0.499998 0
    outer loop
      vertex 4.20021 1.87005 22.98
      vertex 3.71962 2.70246 0
      vertex 3.71962 2.70246 22.98
    endloop
  endfacet
  facet normal 0.866026 0.499998 0
    outer loop
      vertex 3.71962 2.70246 0
      vertex 4.20021 1.87005 22.98
      vertex 4.20021 1.87005 0
    endloop
  endfacet
  facet normal 0.951057 0.309017 0
    outer loop
      vertex 4.49723 0.955915 22.98
      vertex 4.20021 1.87005 0
      vertex 4.20021 1.87005 22.98
    endloop
  endfacet
  facet normal 0.951057 0.309017 0
    outer loop
      vertex 4.20021 1.87005 0
      vertex 4.49723 0.955915 22.98
      vertex 4.49723 0.955915 0
    endloop
  endfacet
  facet normal 0.743144 0.669131 0
    outer loop
      vertex 3.71962 2.70246 22.98
      vertex 3.07646 3.41676 0
      vertex 3.07646 3.41676 22.98
    endloop
  endfacet
  facet normal 0.743144 0.669131 0
    outer loop
      vertex 3.07646 3.41676 0
      vertex 3.71962 2.70246 22.98
      vertex 3.71962 2.70246 0
    endloop
  endfacet
  facet normal 0.20791 0.978148 -0
    outer loop
      vertex 1.42077 4.37267 0
      vertex 0.48059 4.57251 22.98
      vertex 1.42077 4.37267 22.98
    endloop
  endfacet
  facet normal 0.20791 0.978148 0
    outer loop
      vertex 0.48059 4.57251 22.98
      vertex 1.42077 4.37267 0
      vertex 0.48059 4.57251 0
    endloop
  endfacet
  facet normal -0.866026 0.499998 0
    outer loop
      vertex -4.20021 1.87005 0
      vertex -3.71962 2.70246 22.98
      vertex -3.71962 2.70246 0
    endloop
  endfacet
  facet normal -0.866026 0.499998 0
    outer loop
      vertex -3.71962 2.70246 22.98
      vertex -4.20021 1.87005 0
      vertex -4.20021 1.87005 22.98
    endloop
  endfacet
  facet normal -0.743144 0.669131 0
    outer loop
      vertex -3.71962 2.70246 0
      vertex -3.07646 3.41676 22.98
      vertex -3.07646 3.41676 0
    endloop
  endfacet
  facet normal -0.743144 0.669131 0
    outer loop
      vertex -3.07646 3.41676 22.98
      vertex -3.71962 2.70246 0
      vertex -3.71962 2.70246 22.98
    endloop
  endfacet
  facet normal -0.951057 0.309017 0
    outer loop
      vertex -4.49723 0.955915 0
      vertex -4.20021 1.87005 22.98
      vertex -4.20021 1.87005 0
    endloop
  endfacet
  facet normal -0.951057 0.309017 0
    outer loop
      vertex -4.20021 1.87005 22.98
      vertex -4.49723 0.955915 0
      vertex -4.49723 0.955915 22.98
    endloop
  endfacet
  facet normal 0 0 1
    outer loop
      vertex 2.45 0 22.98
      vertex 4.5977 0 22.98
      vertex 4.49723 0.955915 22.98
    endloop
  endfacet
  facet normal 0 0 1
    outer loop
      vertex 2.39646 0.509383 22.98
      vertex 4.49723 0.955915 22.98
      vertex 4.20021 1.87005 22.98
    endloop
  endfacet
  facet normal 0 0 1
    outer loop
      vertex 4.5977 0 22.98
      vertex 2.45 0 22.98
      vertex 4.49723 -0.955915 22.98
    endloop
  endfacet
  facet normal 0 0 1
    outer loop
      vertex 2.23819 0.996504 22.98
      vertex 4.20021 1.87005 22.98
      vertex 3.71962 2.70246 22.98
    endloop
  endfacet
  facet normal -0 0 1
    outer loop
      vertex 2.39646 -0.509383 22.98
      vertex 4.49723 -0.955915 22.98
      vertex 2.45 0 22.98
    endloop
  endfacet
  facet normal 0 0 1
    outer loop
      vertex 1.98209 1.44007 22.98
      vertex 3.71962 2.70246 22.98
      vertex 3.07646 3.41676 22.98
    endloop
  endfacet
  facet normal 0 0 1
    outer loop
      vertex 4.49723 -0.955915 22.98
      vertex 2.39646 -0.509383 22.98
      vertex 4.20021 -1.87005 22.98
    endloop
  endfacet
  facet normal -0 0 1
    outer loop
      vertex 2.23819 -0.996504 22.98
      vertex 4.20021 -1.87005 22.98
      vertex 2.39646 -0.509383 22.98
    endloop
  endfacet
  facet normal 0 0 1
    outer loop
      vertex 4.49723 0.955915 22.98
      vertex 2.39646 0.509383 22.98
      vertex 2.45 0 22.98
    endloop
  endfacet
  facet normal 0 0 1
    outer loop
      vertex 1.63937 1.8207 22.98
      vertex 3.07646 3.41676 22.98
      vertex 2.29885 3.98172 22.98
    endloop
  endfacet
  facet normal 0 0 1
    outer loop
      vertex 4.20021 1.87005 22.98
      vertex 2.23819 0.996504 22.98
      vertex 2.39646 0.509383 22.98
    endloop
  endfacet
  facet normal 0 0 1
    outer loop
      vertex 3.71962 2.70246 22.98
      vertex 1.98209 1.44007 22.98
      vertex 2.23819 0.996504 22.98
    endloop
  endfacet
  facet normal 0 0 1
    outer loop
      vertex 3.07646 3.41676 22.98
      vertex 1.63937 1.8207 22.98
      vertex 1.98209 1.44007 22.98
    endloop
  endfacet
  facet normal 0 0 1
    outer loop
      vertex 1.225 2.12176 22.98
      vertex 2.29885 3.98172 22.98
      vertex 1.42077 4.37267 22.98
    endloop
  endfacet
  facet normal 0 0 1
    outer loop
      vertex 2.29885 3.98172 22.98
      vertex 1.225 2.12176 22.98
      vertex 1.63937 1.8207 22.98
    endloop
  endfacet
  facet normal 0 0 1
    outer loop
      vertex 1.42077 4.37267 22.98
      vertex 0.757092 2.33009 22.98
      vertex 1.225 2.12176 22.98
    endloop
  endfacet
  facet normal 0 0 1
    outer loop
      vertex 0.48059 4.57251 22.98
      vertex 0.757092 2.33009 22.98
      vertex 1.42077 4.37267 22.98
    endloop
  endfacet
  facet normal 0 0 1
    outer loop
      vertex 0.48059 4.57251 22.98
      vertex 0.256094 2.43658 22.98
      vertex 0.757092 2.33009 22.98
    endloop
  endfacet
  facet normal 0 0 1
    outer loop
      vertex 0.48059 4.57251 22.98
      vertex -0.256094 2.43658 22.98
      vertex 0.256094 2.43658 22.98
    endloop
  endfacet
  facet normal -0 0 1
    outer loop
      vertex -0.48059 4.57251 22.98
      vertex -0.256094 2.43658 22.98
      vertex 0.48059 4.57251 22.98
    endloop
  endfacet
  facet normal 0 0 1
    outer loop
      vertex -0.48059 4.57251 22.98
      vertex -0.757092 2.33009 22.98
      vertex -0.256094 2.43658 22.98
    endloop
  endfacet
  facet normal -0 0 1
    outer loop
      vertex -1.42077 4.37267 22.98
      vertex -0.757092 2.33009 22.98
      vertex -0.48059 4.57251 22.98
    endloop
  endfacet
  facet normal 0 0 1
    outer loop
      vertex -0.757092 2.33009 22.98
      vertex -1.42077 4.37267 22.98
      vertex -1.225 2.12176 22.98
    endloop
  endfacet
  facet normal -0 0 1
    outer loop
      vertex -2.29885 3.98172 22.98
      vertex -1.225 2.12176 22.98
      vertex -1.42077 4.37267 22.98
    endloop
  endfacet
  facet normal 0 0 1
    outer loop
      vertex -1.225 2.12176 22.98
      vertex -2.29885 3.98172 22.98
      vertex -1.63937 1.8207 22.98
    endloop
  endfacet
  facet normal -0 0 1
    outer loop
      vertex -3.07646 3.41676 22.98
      vertex -1.63937 1.8207 22.98
      vertex -2.29885 3.98172 22.98
    endloop
  endfacet
  facet normal 0 0 1
    outer loop
      vertex -1.63937 1.8207 22.98
      vertex -3.07646 3.41676 22.98
      vertex -1.98209 1.44007 22.98
    endloop
  endfacet
  facet normal -0 0 1
    outer loop
      vertex -3.71962 2.70246 22.98
      vertex -1.98209 1.44007 22.98
      vertex -3.07646 3.41676 22.98
    endloop
  endfacet
  facet normal 0 0 1
    outer loop
      vertex -1.98209 1.44007 22.98
      vertex -3.71962 2.70246 22.98
      vertex -2.23819 0.996504 22.98
    endloop
  endfacet
  facet normal -0 0 1
    outer loop
      vertex -4.20021 1.87005 22.98
      vertex -2.23819 0.996504 22.98
      vertex -3.71962 2.70246 22.98
    endloop
  endfacet
  facet normal 0 0 1
    outer loop
      vertex 4.20021 -1.87005 22.98
      vertex 2.23819 -0.996504 22.98
      vertex 3.71962 -2.70246 22.98
    endloop
  endfacet
  facet normal -0 0 1
    outer loop
      vertex 1.98209 -1.44007 22.98
      vertex 3.71962 -2.70246 22.98
      vertex 2.23819 -0.996504 22.98
    endloop
  endfacet
  facet normal 0 0 1
    outer loop
      vertex 3.71962 -2.70246 22.98
      vertex 1.98209 -1.44007 22.98
      vertex 3.07646 -3.41676 22.98
    endloop
  endfacet
  facet normal -0 0 1
    outer loop
      vertex 1.63937 -1.8207 22.98
      vertex 3.07646 -3.41676 22.98
      vertex 1.98209 -1.44007 22.98
    endloop
  endfacet
  facet normal 0 0 1
    outer loop
      vertex 3.07646 -3.41676 22.98
      vertex 1.63937 -1.8207 22.98
      vertex 2.29885 -3.98172 22.98
    endloop
  endfacet
  facet normal -0 0 1
    outer loop
      vertex 1.225 -2.12176 22.98
      vertex 2.29885 -3.98172 22.98
      vertex 1.63937 -1.8207 22.98
    endloop
  endfacet
  facet normal 0 0 1
    outer loop
      vertex 2.29885 -3.98172 22.98
      vertex 1.225 -2.12176 22.98
      vertex 1.42077 -4.37267 22.98
    endloop
  endfacet
  facet normal -0 0 1
    outer loop
      vertex 0.757092 -2.33009 22.98
      vertex 1.42077 -4.37267 22.98
      vertex 1.225 -2.12176 22.98
    endloop
  endfacet
  facet normal 0 0 1
    outer loop
      vertex 0.757092 -2.33009 22.98
      vertex 0.48059 -4.57251 22.98
      vertex 1.42077 -4.37267 22.98
    endloop
  endfacet
  facet normal -0 0 1
    outer loop
      vertex 0.256094 -2.43658 22.98
      vertex 0.48059 -4.57251 22.98
      vertex 0.757092 -2.33009 22.98
    endloop
  endfacet
  facet normal -0 0 1
    outer loop
      vertex -0.256094 -2.43658 22.98
      vertex 0.48059 -4.57251 22.98
      vertex 0.256094 -2.43658 22.98
    endloop
  endfacet
  facet normal 0 0 1
    outer loop
      vertex -0.256094 -2.43658 22.98
      vertex -0.48059 -4.57251 22.98
      vertex 0.48059 -4.57251 22.98
    endloop
  endfacet
  facet normal 0 0 1
    outer loop
      vertex -0.757092 -2.33009 22.98
      vertex -0.48059 -4.57251 22.98
      vertex -0.256094 -2.43658 22.98
    endloop
  endfacet
  facet normal 0 0 1
    outer loop
      vertex -1.42077 -4.37267 22.98
      vertex -0.757092 -2.33009 22.98
      vertex -1.225 -2.12176 22.98
    endloop
  endfacet
  facet normal 0 0 1
    outer loop
      vertex -0.757092 -2.33009 22.98
      vertex -1.42077 -4.37267 22.98
      vertex -0.48059 -4.57251 22.98
    endloop
  endfacet
  facet normal 0 0 1
    outer loop
      vertex -2.29885 -3.98172 22.98
      vertex -1.225 -2.12176 22.98
      vertex -1.63937 -1.8207 22.98
    endloop
  endfacet
  facet normal 0 0 1
    outer loop
      vertex -3.07646 -3.41676 22.98
      vertex -1.63937 -1.8207 22.98
      vertex -1.98209 -1.44007 22.98
    endloop
  endfacet
  facet normal 0 0 1
    outer loop
      vertex -3.71962 -2.70246 22.98
      vertex -1.98209 -1.44007 22.98
      vertex -2.23819 -0.996504 22.98
    endloop
  endfacet
  facet normal 0 0 1
    outer loop
      vertex -1.225 -2.12176 22.98
      vertex -2.29885 -3.98172 22.98
      vertex -1.42077 -4.37267 22.98
    endloop
  endfacet
  facet normal 0 0 1
    outer loop
      vertex -4.20021 -1.87005 22.98
      vertex -2.23819 -0.996504 22.98
      vertex -2.39646 -0.509383 22.98
    endloop
  endfacet
  facet normal 0 0 1
    outer loop
      vertex -4.49723 -0.955915 22.98
      vertex -2.39646 -0.509383 22.98
      vertex -2.45 0 22.98
    endloop
  endfacet
  facet normal 0 0 1
    outer loop
      vertex -2.23819 0.996504 22.98
      vertex -4.20021 1.87005 22.98
      vertex -2.39646 0.509383 22.98
    endloop
  endfacet
  facet normal 0 0 1
    outer loop
      vertex -1.63937 -1.8207 22.98
      vertex -3.07646 -3.41676 22.98
      vertex -2.29885 -3.98172 22.98
    endloop
  endfacet
  facet normal -0 0 1
    outer loop
      vertex -4.49723 0.955915 22.98
      vertex -2.39646 0.509383 22.98
      vertex -4.20021 1.87005 22.98
    endloop
  endfacet
  facet normal 0 0 1
    outer loop
      vertex -1.98209 -1.44007 22.98
      vertex -3.71962 -2.70246 22.98
      vertex -3.07646 -3.41676 22.98
    endloop
  endfacet
  facet normal 0 0 1
    outer loop
      vertex -2.39646 0.509383 22.98
      vertex -4.49723 0.955915 22.98
      vertex -2.45 0 22.98
    endloop
  endfacet
  facet normal 0 0 1
    outer loop
      vertex -2.23819 -0.996504 22.98
      vertex -4.20021 -1.87005 22.98
      vertex -3.71962 -2.70246 22.98
    endloop
  endfacet
  facet normal 0 0 1
    outer loop
      vertex -4.5977 0 22.98
      vertex -2.45 0 22.98
      vertex -4.49723 0.955915 22.98
    endloop
  endfacet
  facet normal 0 0 1
    outer loop
      vertex -2.39646 -0.509383 22.98
      vertex -4.49723 -0.955915 22.98
      vertex -4.20021 -1.87005 22.98
    endloop
  endfacet
  facet normal 0 0 1
    outer loop
      vertex -2.45 0 22.98
      vertex -4.5977 0 22.98
      vertex -4.49723 -0.955915 22.98
    endloop
  endfacet
  facet normal -0.40674 0.913544 0
    outer loop
      vertex -1.42077 4.37267 0
      vertex -2.29885 3.98172 22.98
      vertex -1.42077 4.37267 22.98
    endloop
  endfacet
  facet normal -0.40674 0.913544 0
    outer loop
      vertex -2.29885 3.98172 22.98
      vertex -1.42077 4.37267 0
      vertex -2.29885 3.98172 0
    endloop
  endfacet
  facet normal 0.994522 -0.104528 0
    outer loop
      vertex 4.49723 -0.955915 22.98
      vertex 4.5977 0 0
      vertex 4.5977 0 22.98
    endloop
  endfacet
  facet normal 0.994522 -0.104528 0
    outer loop
      vertex 4.5977 0 0
      vertex 4.49723 -0.955915 22.98
      vertex 4.49723 -0.955915 0
    endloop
  endfacet
  facet normal 0 0 -1
    outer loop
      vertex 4.1 0 0
      vertex 4.5977 0 0
      vertex 4.49723 -0.955915 0
    endloop
  endfacet
  facet normal 0 0 -1
    outer loop
      vertex 4.0104 -0.852437 0
      vertex 4.49723 -0.955915 0
      vertex 4.20021 -1.87005 0
    endloop
  endfacet
  facet normal 0 0 -1
    outer loop
      vertex 4.5977 0 0
      vertex 4.1 0 0
      vertex 4.49723 0.955915 0
    endloop
  endfacet
  facet normal 0 0 -1
    outer loop
      vertex 4.0104 0.852437 0
      vertex 4.49723 0.955915 0
      vertex 4.1 0 0
    endloop
  endfacet
  facet normal 0 0 -1
    outer loop
      vertex 4.49723 -0.955915 0
      vertex 4.0104 -0.852437 0
      vertex 4.1 0 0
    endloop
  endfacet
  facet normal 0 0 -1
    outer loop
      vertex 4.20021 -1.87005 0
      vertex 3.74554 -1.66762 0
      vertex 4.0104 -0.852437 0
    endloop
  endfacet
  facet normal 0 0 -1
    outer loop
      vertex 3.71962 -2.70246 0
      vertex 3.74554 -1.66762 0
      vertex 4.20021 -1.87005 0
    endloop
  endfacet
  facet normal 0 0 -1
    outer loop
      vertex 3.71962 -2.70246 0
      vertex 3.31697 -2.40992 0
      vertex 3.74554 -1.66762 0
    endloop
  endfacet
  facet normal 0 0 -1
    outer loop
      vertex 3.07646 -3.41676 0
      vertex 3.31697 -2.40992 0
      vertex 3.71962 -2.70246 0
    endloop
  endfacet
  facet normal 0 0 -1
    outer loop
      vertex 3.07646 -3.41676 0
      vertex 2.74343 -3.04689 0
      vertex 3.31697 -2.40992 0
    endloop
  endfacet
  facet normal 0 0 -1
    outer loop
      vertex 2.29885 -3.98172 0
      vertex 2.74343 -3.04689 0
      vertex 3.07646 -3.41676 0
    endloop
  endfacet
  facet normal 0 0 -1
    outer loop
      vertex 2.29885 -3.98172 0
      vertex 2.05 -3.5507 0
      vertex 2.74343 -3.04689 0
    endloop
  endfacet
  facet normal 0 0 -1
    outer loop
      vertex 1.42077 -4.37267 0
      vertex 2.05 -3.5507 0
      vertex 2.29885 -3.98172 0
    endloop
  endfacet
  facet normal 0 0 -1
    outer loop
      vertex 1.42077 -4.37267 0
      vertex 1.26697 -3.89933 0
      vertex 2.05 -3.5507 0
    endloop
  endfacet
  facet normal 0 0 -1
    outer loop
      vertex 0.48059 -4.57251 0
      vertex 1.26697 -3.89933 0
      vertex 1.42077 -4.37267 0
    endloop
  endfacet
  facet normal 0 0 -1
    outer loop
      vertex 0.48059 -4.57251 0
      vertex 0.428566 -4.07754 0
      vertex 1.26697 -3.89933 0
    endloop
  endfacet
  facet normal 0 0 -1
    outer loop
      vertex 0.48059 -4.57251 0
      vertex -0.428566 -4.07754 0
      vertex 0.428566 -4.07754 0
    endloop
  endfacet
  facet normal 0 0 -1
    outer loop
      vertex -0.48059 -4.57251 0
      vertex -0.428566 -4.07754 0
      vertex 0.48059 -4.57251 0
    endloop
  endfacet
  facet normal 0 0 -1
    outer loop
      vertex -0.48059 -4.57251 0
      vertex -1.26697 -3.89933 0
      vertex -0.428566 -4.07754 0
    endloop
  endfacet
  facet normal 0 0 -1
    outer loop
      vertex -1.42077 -4.37267 0
      vertex -1.26697 -3.89933 0
      vertex -0.48059 -4.57251 0
    endloop
  endfacet
  facet normal 0 0 -1
    outer loop
      vertex -1.42077 -4.37267 0
      vertex -2.05 -3.5507 0
      vertex -1.26697 -3.89933 0
    endloop
  endfacet
  facet normal 0 0 -1
    outer loop
      vertex -2.29885 -3.98172 0
      vertex -2.05 -3.5507 0
      vertex -1.42077 -4.37267 0
    endloop
  endfacet
  facet normal 0 0 -1
    outer loop
      vertex -2.29885 -3.98172 0
      vertex -2.74343 -3.04689 0
      vertex -2.05 -3.5507 0
    endloop
  endfacet
  facet normal 0 0 -1
    outer loop
      vertex -3.07646 -3.41676 0
      vertex -2.74343 -3.04689 0
      vertex -2.29885 -3.98172 0
    endloop
  endfacet
  facet normal 0 0 -1
    outer loop
      vertex -3.07646 -3.41676 0
      vertex -3.31697 -2.40992 0
      vertex -2.74343 -3.04689 0
    endloop
  endfacet
  facet normal 0 0 -1
    outer loop
      vertex -3.71962 -2.70246 0
      vertex -3.31697 -2.40992 0
      vertex -3.07646 -3.41676 0
    endloop
  endfacet
  facet normal 0 0 -1
    outer loop
      vertex -3.71962 -2.70246 0
      vertex -3.74554 -1.66762 0
      vertex -3.31697 -2.40992 0
    endloop
  endfacet
  facet normal 0 0 -1
    outer loop
      vertex -4.20021 -1.87005 0
      vertex -3.74554 -1.66762 0
      vertex -3.71962 -2.70246 0
    endloop
  endfacet
  facet normal 0 0 -1
    outer loop
      vertex -4.49723 -0.955915 0
      vertex -4.0104 -0.852437 0
      vertex -4.20021 -1.87005 0
    endloop
  endfacet
  facet normal -0 0 -1
    outer loop
      vertex -3.74554 -1.66762 0
      vertex -4.20021 -1.87005 0
      vertex -4.0104 -0.852437 0
    endloop
  endfacet
  facet normal -0 0 -1
    outer loop
      vertex 4.49723 0.955915 0
      vertex 4.0104 0.852437 0
      vertex 4.20021 1.87005 0
    endloop
  endfacet
  facet normal 0 0 -1
    outer loop
      vertex 3.74554 1.66762 0
      vertex 4.20021 1.87005 0
      vertex 4.0104 0.852437 0
    endloop
  endfacet
  facet normal 0 0 -1
    outer loop
      vertex 3.74554 1.66762 0
      vertex 3.71962 2.70246 0
      vertex 4.20021 1.87005 0
    endloop
  endfacet
  facet normal 0 0 -1
    outer loop
      vertex 3.31697 2.40992 0
      vertex 3.71962 2.70246 0
      vertex 3.74554 1.66762 0
    endloop
  endfacet
  facet normal 0 0 -1
    outer loop
      vertex 3.31697 2.40992 0
      vertex 3.07646 3.41676 0
      vertex 3.71962 2.70246 0
    endloop
  endfacet
  facet normal 0 0 -1
    outer loop
      vertex 2.74343 3.04689 0
      vertex 3.07646 3.41676 0
      vertex 3.31697 2.40992 0
    endloop
  endfacet
  facet normal 0 0 -1
    outer loop
      vertex 2.74343 3.04689 0
      vertex 2.29885 3.98172 0
      vertex 3.07646 3.41676 0
    endloop
  endfacet
  facet normal 0 0 -1
    outer loop
      vertex 2.05 3.5507 0
      vertex 2.29885 3.98172 0
      vertex 2.74343 3.04689 0
    endloop
  endfacet
  facet normal 0 0 -1
    outer loop
      vertex 2.05 3.5507 0
      vertex 1.42077 4.37267 0
      vertex 2.29885 3.98172 0
    endloop
  endfacet
  facet normal 0 0 -1
    outer loop
      vertex 1.26697 3.89933 0
      vertex 1.42077 4.37267 0
      vertex 2.05 3.5507 0
    endloop
  endfacet
  facet normal 0 0 -1
    outer loop
      vertex 1.26697 3.89933 0
      vertex 0.48059 4.57251 0
      vertex 1.42077 4.37267 0
    endloop
  endfacet
  facet normal 0 0 -1
    outer loop
      vertex 0.428566 4.07754 0
      vertex 0.48059 4.57251 0
      vertex 1.26697 3.89933 0
    endloop
  endfacet
  facet normal 0 0 -1
    outer loop
      vertex -0.428566 4.07754 0
      vertex 0.48059 4.57251 0
      vertex 0.428566 4.07754 0
    endloop
  endfacet
  facet normal 0 0 -1
    outer loop
      vertex -0.428566 4.07754 0
      vertex -0.48059 4.57251 0
      vertex 0.48059 4.57251 0
    endloop
  endfacet
  facet normal 0 0 -1
    outer loop
      vertex -1.26697 3.89933 0
      vertex -0.48059 4.57251 0
      vertex -0.428566 4.07754 0
    endloop
  endfacet
  facet normal 0 0 -1
    outer loop
      vertex -1.26697 3.89933 0
      vertex -1.42077 4.37267 0
      vertex -0.48059 4.57251 0
    endloop
  endfacet
  facet normal 0 0 -1
    outer loop
      vertex -2.05 3.5507 0
      vertex -1.42077 4.37267 0
      vertex -1.26697 3.89933 0
    endloop
  endfacet
  facet normal 0 0 -1
    outer loop
      vertex -2.05 3.5507 0
      vertex -2.29885 3.98172 0
      vertex -1.42077 4.37267 0
    endloop
  endfacet
  facet normal 0 0 -1
    outer loop
      vertex -2.74343 3.04689 0
      vertex -2.29885 3.98172 0
      vertex -2.05 3.5507 0
    endloop
  endfacet
  facet normal 0 0 -1
    outer loop
      vertex -2.74343 3.04689 0
      vertex -3.07646 3.41676 0
      vertex -2.29885 3.98172 0
    endloop
  endfacet
  facet normal 0 0 -1
    outer loop
      vertex -3.31697 2.40992 0
      vertex -3.07646 3.41676 0
      vertex -2.74343 3.04689 0
    endloop
  endfacet
  facet normal 0 0 -1
    outer loop
      vertex -3.31697 2.40992 0
      vertex -3.71962 2.70246 0
      vertex -3.07646 3.41676 0
    endloop
  endfacet
  facet normal 0 0 -1
    outer loop
      vertex -3.74554 1.66762 0
      vertex -3.71962 2.70246 0
      vertex -3.31697 2.40992 0
    endloop
  endfacet
  facet normal 0 0 -1
    outer loop
      vertex -4.20021 1.87005 0
      vertex -3.74554 1.66762 0
      vertex -4.0104 0.852437 0
    endloop
  endfacet
  facet normal 0 0 -1
    outer loop
      vertex -3.74554 1.66762 0
      vertex -4.20021 1.87005 0
      vertex -3.71962 2.70246 0
    endloop
  endfacet
  facet normal 0 0 -1
    outer loop
      vertex -4.49723 0.955915 0
      vertex -4.0104 0.852437 0
      vertex -4.1 0 0
    endloop
  endfacet
  facet normal -0 0 -1
    outer loop
      vertex -4.0104 -0.852437 0
      vertex -4.49723 -0.955915 0
      vertex -4.1 0 0
    endloop
  endfacet
  facet normal 0 0 -1
    outer loop
      vertex -4.5977 0 0
      vertex -4.1 0 0
      vertex -4.49723 -0.955915 0
    endloop
  endfacet
  facet normal 0 0 -1
    outer loop
      vertex -4.0104 0.852437 0
      vertex -4.49723 0.955915 0
      vertex -4.20021 1.87005 0
    endloop
  endfacet
  facet normal 0 0 -1
    outer loop
      vertex -4.1 0 0
      vertex -4.5977 0 0
      vertex -4.49723 0.955915 0
    endloop
  endfacet
  facet normal 0.20791 -0.978148 0
    outer loop
      vertex 0.48059 -4.57251 0
      vertex 1.42077 -4.37267 22.98
      vertex 0.48059 -4.57251 22.98
    endloop
  endfacet
  facet normal 0.20791 -0.978148 0
    outer loop
      vertex 1.42077 -4.37267 22.98
      vertex 0.48059 -4.57251 0
      vertex 1.42077 -4.37267 0
    endloop
  endfacet
  facet normal 0.587781 -0.80902 0
    outer loop
      vertex 2.29885 -3.98172 0
      vertex 3.07646 -3.41676 22.98
      vertex 2.29885 -3.98172 22.98
    endloop
  endfacet
  facet normal 0.587781 -0.80902 0
    outer loop
      vertex 3.07646 -3.41676 22.98
      vertex 2.29885 -3.98172 0
      vertex 3.07646 -3.41676 0
    endloop
  endfacet
  facet normal 0.743144 -0.669131 0
    outer loop
      vertex 3.07646 -3.41676 22.98
      vertex 3.71962 -2.70246 0
      vertex 3.71962 -2.70246 22.98
    endloop
  endfacet
  facet normal 0.743144 -0.669131 0
    outer loop
      vertex 3.71962 -2.70246 0
      vertex 3.07646 -3.41676 22.98
      vertex 3.07646 -3.41676 0
    endloop
  endfacet
  facet normal 0.951057 -0.309017 0
    outer loop
      vertex 4.20021 -1.87005 22.98
      vertex 4.49723 -0.955915 0
      vertex 4.49723 -0.955915 22.98
    endloop
  endfacet
  facet normal 0.951057 -0.309017 0
    outer loop
      vertex 4.49723 -0.955915 0
      vertex 4.20021 -1.87005 22.98
      vertex 4.20021 -1.87005 0
    endloop
  endfacet
  facet normal -0.587781 -0.80902 0
    outer loop
      vertex -3.07646 -3.41676 0
      vertex -2.29885 -3.98172 22.98
      vertex -3.07646 -3.41676 22.98
    endloop
  endfacet
  facet normal -0.587781 -0.80902 -0
    outer loop
      vertex -2.29885 -3.98172 22.98
      vertex -3.07646 -3.41676 0
      vertex -2.29885 -3.98172 0
    endloop
  endfacet
  facet normal -0.866026 -0.499998 0
    outer loop
      vertex -3.71962 -2.70246 0
      vertex -4.20021 -1.87005 22.98
      vertex -4.20021 -1.87005 0
    endloop
  endfacet
  facet normal -0.866026 -0.499998 0
    outer loop
      vertex -4.20021 -1.87005 22.98
      vertex -3.71962 -2.70246 0
      vertex -3.71962 -2.70246 22.98
    endloop
  endfacet
  facet normal -0.743144 -0.669131 0
    outer loop
      vertex -3.07646 -3.41676 0
      vertex -3.71962 -2.70246 22.98
      vertex -3.71962 -2.70246 0
    endloop
  endfacet
  facet normal -0.743144 -0.669131 0
    outer loop
      vertex -3.71962 -2.70246 22.98
      vertex -3.07646 -3.41676 0
      vertex -3.07646 -3.41676 22.98
    endloop
  endfacet
  facet normal 0.40674 -0.913544 0
    outer loop
      vertex 1.42077 -4.37267 0
      vertex 2.29885 -3.98172 22.98
      vertex 1.42077 -4.37267 22.98
    endloop
  endfacet
  facet normal 0.40674 -0.913544 0
    outer loop
      vertex 2.29885 -3.98172 22.98
      vertex 1.42077 -4.37267 0
      vertex 2.29885 -3.98172 0
    endloop
  endfacet
  facet normal -0.20791 -0.978148 0
    outer loop
      vertex -1.42077 -4.37267 0
      vertex -0.48059 -4.57251 22.98
      vertex -1.42077 -4.37267 22.98
    endloop
  endfacet
  facet normal -0.20791 -0.978148 -0
    outer loop
      vertex -0.48059 -4.57251 22.98
      vertex -1.42077 -4.37267 0
      vertex -0.48059 -4.57251 0
    endloop
  endfacet
  facet normal -0.951057 -0.309017 0
    outer loop
      vertex -4.20021 -1.87005 0
      vertex -4.49723 -0.955915 22.98
      vertex -4.49723 -0.955915 0
    endloop
  endfacet
  facet normal -0.951057 -0.309017 0
    outer loop
      vertex -4.49723 -0.955915 22.98
      vertex -4.20021 -1.87005 0
      vertex -4.20021 -1.87005 22.98
    endloop
  endfacet
  facet normal -0.994522 -0.104528 0
    outer loop
      vertex -4.49723 -0.955915 0
      vertex -4.5977 0 22.98
      vertex -4.5977 0 0
    endloop
  endfacet
  facet normal -0.994522 -0.104528 0
    outer loop
      vertex -4.5977 0 22.98
      vertex -4.49723 -0.955915 0
      vertex -4.49723 -0.955915 22.98
    endloop
  endfacet
  facet normal -0.40674 -0.913544 0
    outer loop
      vertex -2.29885 -3.98172 0
      vertex -1.42077 -4.37267 22.98
      vertex -2.29885 -3.98172 22.98
    endloop
  endfacet
  facet normal -0.40674 -0.913544 -0
    outer loop
      vertex -1.42077 -4.37267 22.98
      vertex -2.29885 -3.98172 0
      vertex -1.42077 -4.37267 0
    endloop
  endfacet
  facet normal -0.866024 -0.500003 0
    outer loop
      vertex 3.74554 1.66762 0
      vertex 3.31697 2.40992 5
      vertex 3.31697 2.40992 0
    endloop
  endfacet
  facet normal -0.866024 -0.500003 0
    outer loop
      vertex 3.31697 2.40992 5
      vertex 3.74554 1.66762 0
      vertex 3.74554 1.66762 5
    endloop
  endfacet
  facet normal 0 -1 0
    outer loop
      vertex -0.428566 4.07754 0
      vertex 0.428566 4.07754 5
      vertex -0.428566 4.07754 5
    endloop
  endfacet
  facet normal 0 -1 -0
    outer loop
      vertex 0.428566 4.07754 5
      vertex -0.428566 4.07754 0
      vertex 0.428566 4.07754 0
    endloop
  endfacet
  facet normal -0.743139 -0.669137 0
    outer loop
      vertex 3.31697 2.40992 0
      vertex 2.74343 3.04689 5
      vertex 2.74343 3.04689 0
    endloop
  endfacet
  facet normal -0.743139 -0.669137 0
    outer loop
      vertex 2.74343 3.04689 5
      vertex 3.31697 2.40992 0
      vertex 3.31697 2.40992 5
    endloop
  endfacet
  facet normal -0.207914 -0.978147 0
    outer loop
      vertex 0.428566 4.07754 0
      vertex 1.26697 3.89933 5
      vertex 0.428566 4.07754 5
    endloop
  endfacet
  facet normal -0.207914 -0.978147 -0
    outer loop
      vertex 1.26697 3.89933 5
      vertex 0.428566 4.07754 0
      vertex 1.26697 3.89933 0
    endloop
  endfacet
  facet normal 0.406739 -0.913544 0
    outer loop
      vertex -2.05 3.5507 0
      vertex -1.26697 3.89933 5
      vertex -2.05 3.5507 5
    endloop
  endfacet
  facet normal 0.406739 -0.913544 0
    outer loop
      vertex -1.26697 3.89933 5
      vertex -2.05 3.5507 0
      vertex -1.26697 3.89933 0
    endloop
  endfacet
  facet normal 0.866024 -0.500003 0
    outer loop
      vertex -3.74554 1.66762 5
      vertex -3.31697 2.40992 0
      vertex -3.31697 2.40992 5
    endloop
  endfacet
  facet normal 0.866024 -0.500003 0
    outer loop
      vertex -3.31697 2.40992 0
      vertex -3.74554 1.66762 5
      vertex -3.74554 1.66762 0
    endloop
  endfacet
  facet normal 0.587788 -0.809015 0
    outer loop
      vertex -2.74343 3.04689 0
      vertex -2.05 3.5507 5
      vertex -2.74343 3.04689 5
    endloop
  endfacet
  facet normal 0.587788 -0.809015 0
    outer loop
      vertex -2.05 3.5507 5
      vertex -2.74343 3.04689 0
      vertex -2.05 3.5507 0
    endloop
  endfacet
  facet normal -0.994521 0.104535 0
    outer loop
      vertex 4.0104 -0.852437 0
      vertex 4.1 0 5
      vertex 4.1 0 0
    endloop
  endfacet
  facet normal -0.994521 0.104535 0
    outer loop
      vertex 4.1 0 5
      vertex 4.0104 -0.852437 0
      vertex 4.0104 -0.852437 5
    endloop
  endfacet
  facet normal -0.207914 0.978147 0
    outer loop
      vertex 1.26697 -3.89933 0
      vertex 0.428566 -4.07754 5
      vertex 1.26697 -3.89933 5
    endloop
  endfacet
  facet normal -0.207914 0.978147 0
    outer loop
      vertex 0.428566 -4.07754 5
      vertex 1.26697 -3.89933 0
      vertex 0.428566 -4.07754 0
    endloop
  endfacet
  facet normal -0.95106 -0.309007 0
    outer loop
      vertex 4.0104 0.852437 0
      vertex 3.74554 1.66762 5
      vertex 3.74554 1.66762 0
    endloop
  endfacet
  facet normal -0.95106 -0.309007 0
    outer loop
      vertex 3.74554 1.66762 5
      vertex 4.0104 0.852437 0
      vertex 4.0104 0.852437 5
    endloop
  endfacet
  facet normal -0.587788 -0.809015 0
    outer loop
      vertex 2.05 3.5507 0
      vertex 2.74343 3.04689 5
      vertex 2.05 3.5507 5
    endloop
  endfacet
  facet normal -0.587788 -0.809015 -0
    outer loop
      vertex 2.74343 3.04689 5
      vertex 2.05 3.5507 0
      vertex 2.74343 3.04689 0
    endloop
  endfacet
  facet normal -0.406739 -0.913544 0
    outer loop
      vertex 1.26697 3.89933 0
      vertex 2.05 3.5507 5
      vertex 1.26697 3.89933 5
    endloop
  endfacet
  facet normal -0.406739 -0.913544 -0
    outer loop
      vertex 2.05 3.5507 5
      vertex 1.26697 3.89933 0
      vertex 2.05 3.5507 0
    endloop
  endfacet
  facet normal 0.994521 -0.104535 0
    outer loop
      vertex -4.1 0 5
      vertex -4.0104 0.852437 0
      vertex -4.0104 0.852437 5
    endloop
  endfacet
  facet normal 0.994521 -0.104535 0
    outer loop
      vertex -4.0104 0.852437 0
      vertex -4.1 0 5
      vertex -4.1 0 0
    endloop
  endfacet
  facet normal 0.743139 -0.669137 0
    outer loop
      vertex -3.31697 2.40992 5
      vertex -2.74343 3.04689 0
      vertex -2.74343 3.04689 5
    endloop
  endfacet
  facet normal 0.743139 -0.669137 0
    outer loop
      vertex -2.74343 3.04689 0
      vertex -3.31697 2.40992 5
      vertex -3.31697 2.40992 0
    endloop
  endfacet
  facet normal 0.207914 -0.978147 0
    outer loop
      vertex -1.26697 3.89933 0
      vertex -0.428566 4.07754 5
      vertex -1.26697 3.89933 5
    endloop
  endfacet
  facet normal 0.207914 -0.978147 0
    outer loop
      vertex -0.428566 4.07754 5
      vertex -1.26697 3.89933 0
      vertex -0.428566 4.07754 0
    endloop
  endfacet
  facet normal -0.994521 -0.104535 0
    outer loop
      vertex 4.1 0 0
      vertex 4.0104 0.852437 5
      vertex 4.0104 0.852437 0
    endloop
  endfacet
  facet normal -0.994521 -0.104535 0
    outer loop
      vertex 4.0104 0.852437 5
      vertex 4.1 0 0
      vertex 4.1 0 5
    endloop
  endfacet
  facet normal -0.587788 0.809015 0
    outer loop
      vertex 2.74343 -3.04689 0
      vertex 2.05 -3.5507 5
      vertex 2.74343 -3.04689 5
    endloop
  endfacet
  facet normal -0.587788 0.809015 0
    outer loop
      vertex 2.05 -3.5507 5
      vertex 2.74343 -3.04689 0
      vertex 2.05 -3.5507 0
    endloop
  endfacet
  facet normal -0.95106 0.309007 0
    outer loop
      vertex 3.74554 -1.66762 0
      vertex 4.0104 -0.852437 5
      vertex 4.0104 -0.852437 0
    endloop
  endfacet
  facet normal -0.95106 0.309007 0
    outer loop
      vertex 4.0104 -0.852437 5
      vertex 3.74554 -1.66762 0
      vertex 3.74554 -1.66762 5
    endloop
  endfacet
  facet normal 0.587788 0.809015 -0
    outer loop
      vertex -2.05 -3.5507 0
      vertex -2.74343 -3.04689 5
      vertex -2.05 -3.5507 5
    endloop
  endfacet
  facet normal 0.587788 0.809015 0
    outer loop
      vertex -2.74343 -3.04689 5
      vertex -2.05 -3.5507 0
      vertex -2.74343 -3.04689 0
    endloop
  endfacet
  facet normal 0.866024 0.500003 0
    outer loop
      vertex -3.31697 -2.40992 5
      vertex -3.74554 -1.66762 0
      vertex -3.74554 -1.66762 5
    endloop
  endfacet
  facet normal 0.866024 0.500003 0
    outer loop
      vertex -3.74554 -1.66762 0
      vertex -3.31697 -2.40992 5
      vertex -3.31697 -2.40992 0
    endloop
  endfacet
  facet normal 0 0 -1
    outer loop
      vertex 4.0104 -0.852437 5
      vertex 4.0104 0.852437 5
      vertex 4.1 0 5
    endloop
  endfacet
  facet normal 0 0 -1
    outer loop
      vertex 3.74554 -1.66762 5
      vertex 4.0104 0.852437 5
      vertex 4.0104 -0.852437 5
    endloop
  endfacet
  facet normal 0 0 -1
    outer loop
      vertex 3.74554 -1.66762 5
      vertex 3.74554 1.66762 5
      vertex 4.0104 0.852437 5
    endloop
  endfacet
  facet normal 0 0 -1
    outer loop
      vertex 3.31697 -2.40992 5
      vertex 3.74554 1.66762 5
      vertex 3.74554 -1.66762 5
    endloop
  endfacet
  facet normal 0 0 -1
    outer loop
      vertex 3.31697 -2.40992 5
      vertex 3.31697 2.40992 5
      vertex 3.74554 1.66762 5
    endloop
  endfacet
  facet normal 0 0 -1
    outer loop
      vertex 2.74343 -3.04689 5
      vertex 3.31697 2.40992 5
      vertex 3.31697 -2.40992 5
    endloop
  endfacet
  facet normal 0 0 -1
    outer loop
      vertex 2.74343 -3.04689 5
      vertex 2.74343 3.04689 5
      vertex 3.31697 2.40992 5
    endloop
  endfacet
  facet normal 0 0 -1
    outer loop
      vertex 2.05 -3.5507 5
      vertex 2.74343 3.04689 5
      vertex 2.74343 -3.04689 5
    endloop
  endfacet
  facet normal 0 0 -1
    outer loop
      vertex 2.05 -3.5507 5
      vertex 2.05 3.5507 5
      vertex 2.74343 3.04689 5
    endloop
  endfacet
  facet normal 0 0 -1
    outer loop
      vertex 1.26697 -3.89933 5
      vertex 2.05 3.5507 5
      vertex 2.05 -3.5507 5
    endloop
  endfacet
  facet normal 0 0 -1
    outer loop
      vertex 1.26697 -3.89933 5
      vertex 1.26697 3.89933 5
      vertex 2.05 3.5507 5
    endloop
  endfacet
  facet normal 0 0 -1
    outer loop
      vertex 0.428566 -4.07754 5
      vertex 1.26697 3.89933 5
      vertex 1.26697 -3.89933 5
    endloop
  endfacet
  facet normal 0 0 -1
    outer loop
      vertex 0.428566 -4.07754 5
      vertex 0.428566 4.07754 5
      vertex 1.26697 3.89933 5
    endloop
  endfacet
  facet normal 0 0 -1
    outer loop
      vertex -0.428566 -4.07754 5
      vertex 0.428566 4.07754 5
      vertex 0.428566 -4.07754 5
    endloop
  endfacet
  facet normal 0 0 -1
    outer loop
      vertex -0.428566 -4.07754 5
      vertex -0.428566 4.07754 5
      vertex 0.428566 4.07754 5
    endloop
  endfacet
  facet normal 0 0 -1
    outer loop
      vertex -1.26697 -3.89933 5
      vertex -0.428566 4.07754 5
      vertex -0.428566 -4.07754 5
    endloop
  endfacet
  facet normal 0 0 -1
    outer loop
      vertex -1.26697 -3.89933 5
      vertex -1.26697 3.89933 5
      vertex -0.428566 4.07754 5
    endloop
  endfacet
  facet normal 0 0 -1
    outer loop
      vertex -2.05 -3.5507 5
      vertex -1.26697 3.89933 5
      vertex -1.26697 -3.89933 5
    endloop
  endfacet
  facet normal 0 0 -1
    outer loop
      vertex -2.05 -3.5507 5
      vertex -2.05 3.5507 5
      vertex -1.26697 3.89933 5
    endloop
  endfacet
  facet normal 0 0 -1
    outer loop
      vertex -2.74343 -3.04689 5
      vertex -2.05 3.5507 5
      vertex -2.05 -3.5507 5
    endloop
  endfacet
  facet normal 0 0 -1
    outer loop
      vertex -2.74343 -3.04689 5
      vertex -2.74343 3.04689 5
      vertex -2.05 3.5507 5
    endloop
  endfacet
  facet normal 0 0 -1
    outer loop
      vertex -3.31697 -2.40992 5
      vertex -2.74343 3.04689 5
      vertex -2.74343 -3.04689 5
    endloop
  endfacet
  facet normal 0 0 -1
    outer loop
      vertex -3.31697 -2.40992 5
      vertex -3.31697 2.40992 5
      vertex -2.74343 3.04689 5
    endloop
  endfacet
  facet normal 0 0 -1
    outer loop
      vertex -3.74554 -1.66762 5
      vertex -3.31697 2.40992 5
      vertex -3.31697 -2.40992 5
    endloop
  endfacet
  facet normal 0 0 -1
    outer loop
      vertex -3.74554 -1.66762 5
      vertex -3.74554 1.66762 5
      vertex -3.31697 2.40992 5
    endloop
  endfacet
  facet normal 0 0 -1
    outer loop
      vertex -4.0104 -0.852437 5
      vertex -3.74554 1.66762 5
      vertex -3.74554 -1.66762 5
    endloop
  endfacet
  facet normal 0 0 -1
    outer loop
      vertex -4.0104 -0.852437 5
      vertex -4.0104 0.852437 5
      vertex -3.74554 1.66762 5
    endloop
  endfacet
  facet normal 0 -0 -1
    outer loop
      vertex -4.0104 0.852437 5
      vertex -4.0104 -0.852437 5
      vertex -4.1 0 5
    endloop
  endfacet
  facet normal 0.95106 -0.309007 0
    outer loop
      vertex -4.0104 0.852437 5
      vertex -3.74554 1.66762 0
      vertex -3.74554 1.66762 5
    endloop
  endfacet
  facet normal 0.95106 -0.309007 0
    outer loop
      vertex -3.74554 1.66762 0
      vertex -4.0104 0.852437 5
      vertex -4.0104 0.852437 0
    endloop
  endfacet
  facet normal -0.866024 0.500003 0
    outer loop
      vertex 3.31697 -2.40992 0
      vertex 3.74554 -1.66762 5
      vertex 3.74554 -1.66762 0
    endloop
  endfacet
  facet normal -0.866024 0.500003 0
    outer loop
      vertex 3.74554 -1.66762 5
      vertex 3.31697 -2.40992 0
      vertex 3.31697 -2.40992 5
    endloop
  endfacet
  facet normal 0.994521 0.104535 0
    outer loop
      vertex -4.0104 -0.852437 5
      vertex -4.1 0 0
      vertex -4.1 0 5
    endloop
  endfacet
  facet normal 0.994521 0.104535 0
    outer loop
      vertex -4.1 0 0
      vertex -4.0104 -0.852437 5
      vertex -4.0104 -0.852437 0
    endloop
  endfacet
  facet normal 0.743139 0.669137 0
    outer loop
      vertex -2.74343 -3.04689 5
      vertex -3.31697 -2.40992 0
      vertex -3.31697 -2.40992 5
    endloop
  endfacet
  facet normal 0.743139 0.669137 0
    outer loop
      vertex -3.31697 -2.40992 0
      vertex -2.74343 -3.04689 5
      vertex -2.74343 -3.04689 0
    endloop
  endfacet
  facet normal -0.406739 0.913544 0
    outer loop
      vertex 2.05 -3.5507 0
      vertex 1.26697 -3.89933 5
      vertex 2.05 -3.5507 5
    endloop
  endfacet
  facet normal -0.406739 0.913544 0
    outer loop
      vertex 1.26697 -3.89933 5
      vertex 2.05 -3.5507 0
      vertex 1.26697 -3.89933 0
    endloop
  endfacet
  facet normal -0.743139 0.669137 0
    outer loop
      vertex 2.74343 -3.04689 0
      vertex 3.31697 -2.40992 5
      vertex 3.31697 -2.40992 0
    endloop
  endfacet
  facet normal -0.743139 0.669137 0
    outer loop
      vertex 3.31697 -2.40992 5
      vertex 2.74343 -3.04689 0
      vertex 2.74343 -3.04689 5
    endloop
  endfacet
  facet normal 0.406739 0.913544 -0
    outer loop
      vertex -1.26697 -3.89933 0
      vertex -2.05 -3.5507 5
      vertex -1.26697 -3.89933 5
    endloop
  endfacet
  facet normal 0.406739 0.913544 0
    outer loop
      vertex -2.05 -3.5507 5
      vertex -1.26697 -3.89933 0
      vertex -2.05 -3.5507 0
    endloop
  endfacet
  facet normal 0 1 -0
    outer loop
      vertex 0.428566 -4.07754 0
      vertex -0.428566 -4.07754 5
      vertex 0.428566 -4.07754 5
    endloop
  endfacet
  facet normal 0 1 0
    outer loop
      vertex -0.428566 -4.07754 5
      vertex 0.428566 -4.07754 0
      vertex -0.428566 -4.07754 0
    endloop
  endfacet
  facet normal 0.95106 0.309007 0
    outer loop
      vertex -3.74554 -1.66762 5
      vertex -4.0104 -0.852437 0
      vertex -4.0104 -0.852437 5
    endloop
  endfacet
  facet normal 0.95106 0.309007 0
    outer loop
      vertex -4.0104 -0.852437 0
      vertex -3.74554 -1.66762 5
      vertex -3.74554 -1.66762 0
    endloop
  endfacet
  facet normal 0.207914 0.978147 -0
    outer loop
      vertex -0.428566 -4.07754 0
      vertex -1.26697 -3.89933 5
      vertex -0.428566 -4.07754 5
    endloop
  endfacet
  facet normal 0.207914 0.978147 0
    outer loop
      vertex -1.26697 -3.89933 5
      vertex -0.428566 -4.07754 0
      vertex -1.26697 -3.89933 0
    endloop
  endfacet
  facet normal -0.994522 -0.104532 0
    outer loop
      vertex 2.45 0 6.5
      vertex 2.39646 0.509383 22.98
      vertex 2.39646 0.509383 6.5
    endloop
  endfacet
  facet normal -0.994522 -0.104532 0
    outer loop
      vertex 2.39646 0.509383 22.98
      vertex 2.45 0 6.5
      vertex 2.45 0 22.98
    endloop
  endfacet
  facet normal 0.994522 -0.104532 0
    outer loop
      vertex -2.45 0 22.98
      vertex -2.39646 0.509383 6.5
      vertex -2.39646 0.509383 22.98
    endloop
  endfacet
  facet normal 0.994522 -0.104532 0
    outer loop
      vertex -2.39646 0.509383 6.5
      vertex -2.45 0 22.98
      vertex -2.45 0 6.5
    endloop
  endfacet
  facet normal 0 -1 0
    outer loop
      vertex -0.256094 2.43658 6.5
      vertex 0.256094 2.43658 22.98
      vertex -0.256094 2.43658 22.98
    endloop
  endfacet
  facet normal 0 -1 -0
    outer loop
      vertex 0.256094 2.43658 22.98
      vertex -0.256094 2.43658 6.5
      vertex 0.256094 2.43658 6.5
    endloop
  endfacet
  facet normal 0 1 -0
    outer loop
      vertex 0.256094 -2.43658 6.5
      vertex -0.256094 -2.43658 22.98
      vertex 0.256094 -2.43658 22.98
    endloop
  endfacet
  facet normal 0 1 0
    outer loop
      vertex -0.256094 -2.43658 22.98
      vertex 0.256094 -2.43658 6.5
      vertex -0.256094 -2.43658 6.5
    endloop
  endfacet
  facet normal -0.743146 -0.66913 0
    outer loop
      vertex 1.98209 1.44007 6.5
      vertex 1.63937 1.8207 22.98
      vertex 1.63937 1.8207 6.5
    endloop
  endfacet
  facet normal -0.743146 -0.66913 0
    outer loop
      vertex 1.63937 1.8207 22.98
      vertex 1.98209 1.44007 6.5
      vertex 1.98209 1.44007 22.98
    endloop
  endfacet
  facet normal -0.95106 -0.309008 0
    outer loop
      vertex 2.39646 0.509383 6.5
      vertex 2.23819 0.996504 22.98
      vertex 2.23819 0.996504 6.5
    endloop
  endfacet
  facet normal -0.95106 -0.309008 0
    outer loop
      vertex 2.23819 0.996504 22.98
      vertex 2.39646 0.509383 6.5
      vertex 2.39646 0.509383 22.98
    endloop
  endfacet
  facet normal 0.587789 -0.809015 0
    outer loop
      vertex -1.63937 1.8207 6.5
      vertex -1.225 2.12176 22.98
      vertex -1.63937 1.8207 22.98
    endloop
  endfacet
  facet normal 0.587789 -0.809015 0
    outer loop
      vertex -1.225 2.12176 22.98
      vertex -1.63937 1.8207 6.5
      vertex -1.225 2.12176 6.5
    endloop
  endfacet
  facet normal 0.207911 -0.978148 0
    outer loop
      vertex -0.757092 2.33009 6.5
      vertex -0.256094 2.43658 22.98
      vertex -0.757092 2.33009 22.98
    endloop
  endfacet
  facet normal 0.207911 -0.978148 0
    outer loop
      vertex -0.256094 2.43658 22.98
      vertex -0.757092 2.33009 6.5
      vertex -0.256094 2.43658 6.5
    endloop
  endfacet
  facet normal -0.866019 -0.50001 0
    outer loop
      vertex 2.23819 0.996504 6.5
      vertex 1.98209 1.44007 22.98
      vertex 1.98209 1.44007 6.5
    endloop
  endfacet
  facet normal -0.866019 -0.50001 0
    outer loop
      vertex 1.98209 1.44007 22.98
      vertex 2.23819 0.996504 6.5
      vertex 2.23819 0.996504 22.98
    endloop
  endfacet
  facet normal -0.406743 -0.913543 0
    outer loop
      vertex 0.757092 2.33009 6.5
      vertex 1.225 2.12176 22.98
      vertex 0.757092 2.33009 22.98
    endloop
  endfacet
  facet normal -0.406743 -0.913543 -0
    outer loop
      vertex 1.225 2.12176 22.98
      vertex 0.757092 2.33009 6.5
      vertex 1.225 2.12176 6.5
    endloop
  endfacet
  facet normal -0.207911 -0.978148 0
    outer loop
      vertex 0.256094 2.43658 6.5
      vertex 0.757092 2.33009 22.98
      vertex 0.256094 2.43658 22.98
    endloop
  endfacet
  facet normal -0.207911 -0.978148 -0
    outer loop
      vertex 0.757092 2.33009 22.98
      vertex 0.256094 2.43658 6.5
      vertex 0.757092 2.33009 6.5
    endloop
  endfacet
  facet normal -0.587789 -0.809015 0
    outer loop
      vertex 1.225 2.12176 6.5
      vertex 1.63937 1.8207 22.98
      vertex 1.225 2.12176 22.98
    endloop
  endfacet
  facet normal -0.587789 -0.809015 -0
    outer loop
      vertex 1.63937 1.8207 22.98
      vertex 1.225 2.12176 6.5
      vertex 1.63937 1.8207 6.5
    endloop
  endfacet
  facet normal 0.866019 -0.50001 0
    outer loop
      vertex -2.23819 0.996504 22.98
      vertex -1.98209 1.44007 6.5
      vertex -1.98209 1.44007 22.98
    endloop
  endfacet
  facet normal 0.866019 -0.50001 0
    outer loop
      vertex -1.98209 1.44007 6.5
      vertex -2.23819 0.996504 22.98
      vertex -2.23819 0.996504 6.5
    endloop
  endfacet
  facet normal 0.743146 -0.66913 0
    outer loop
      vertex -1.98209 1.44007 22.98
      vertex -1.63937 1.8207 6.5
      vertex -1.63937 1.8207 22.98
    endloop
  endfacet
  facet normal 0.743146 -0.66913 0
    outer loop
      vertex -1.63937 1.8207 6.5
      vertex -1.98209 1.44007 22.98
      vertex -1.98209 1.44007 6.5
    endloop
  endfacet
  facet normal 0.95106 -0.309008 0
    outer loop
      vertex -2.39646 0.509383 22.98
      vertex -2.23819 0.996504 6.5
      vertex -2.23819 0.996504 22.98
    endloop
  endfacet
  facet normal 0.95106 -0.309008 0
    outer loop
      vertex -2.23819 0.996504 6.5
      vertex -2.39646 0.509383 22.98
      vertex -2.39646 0.509383 6.5
    endloop
  endfacet
  facet normal 0.406743 -0.913543 0
    outer loop
      vertex -1.225 2.12176 6.5
      vertex -0.757092 2.33009 22.98
      vertex -1.225 2.12176 22.98
    endloop
  endfacet
  facet normal 0.406743 -0.913543 0
    outer loop
      vertex -0.757092 2.33009 22.98
      vertex -1.225 2.12176 6.5
      vertex -0.757092 2.33009 6.5
    endloop
  endfacet
  facet normal -0.994522 0.104532 0
    outer loop
      vertex 2.39646 -0.509383 6.5
      vertex 2.45 0 22.98
      vertex 2.45 0 6.5
    endloop
  endfacet
  facet normal -0.994522 0.104532 0
    outer loop
      vertex 2.45 0 22.98
      vertex 2.39646 -0.509383 6.5
      vertex 2.39646 -0.509383 22.98
    endloop
  endfacet
  facet normal 0 0 1
    outer loop
      vertex 2.39646 0.509383 6.5
      vertex 2.39646 -0.509383 6.5
      vertex 2.45 0 6.5
    endloop
  endfacet
  facet normal 0 0 1
    outer loop
      vertex 2.23819 0.996504 6.5
      vertex 2.39646 -0.509383 6.5
      vertex 2.39646 0.509383 6.5
    endloop
  endfacet
  facet normal 0 0 1
    outer loop
      vertex 2.23819 0.996504 6.5
      vertex 2.23819 -0.996504 6.5
      vertex 2.39646 -0.509383 6.5
    endloop
  endfacet
  facet normal 0 0 1
    outer loop
      vertex 1.98209 1.44007 6.5
      vertex 2.23819 -0.996504 6.5
      vertex 2.23819 0.996504 6.5
    endloop
  endfacet
  facet normal 0 0 1
    outer loop
      vertex 1.98209 1.44007 6.5
      vertex 1.98209 -1.44007 6.5
      vertex 2.23819 -0.996504 6.5
    endloop
  endfacet
  facet normal 0 0 1
    outer loop
      vertex 1.63937 1.8207 6.5
      vertex 1.98209 -1.44007 6.5
      vertex 1.98209 1.44007 6.5
    endloop
  endfacet
  facet normal 0 0 1
    outer loop
      vertex 1.63937 1.8207 6.5
      vertex 1.63937 -1.8207 6.5
      vertex 1.98209 -1.44007 6.5
    endloop
  endfacet
  facet normal 0 0 1
    outer loop
      vertex 1.225 2.12176 6.5
      vertex 1.63937 -1.8207 6.5
      vertex 1.63937 1.8207 6.5
    endloop
  endfacet
  facet normal 0 0 1
    outer loop
      vertex 1.225 2.12176 6.5
      vertex 1.225 -2.12176 6.5
      vertex 1.63937 -1.8207 6.5
    endloop
  endfacet
  facet normal 0 0 1
    outer loop
      vertex 0.757092 2.33009 6.5
      vertex 1.225 -2.12176 6.5
      vertex 1.225 2.12176 6.5
    endloop
  endfacet
  facet normal 0 0 1
    outer loop
      vertex 0.757092 2.33009 6.5
      vertex 0.757092 -2.33009 6.5
      vertex 1.225 -2.12176 6.5
    endloop
  endfacet
  facet normal 0 0 1
    outer loop
      vertex 0.256094 2.43658 6.5
      vertex 0.757092 -2.33009 6.5
      vertex 0.757092 2.33009 6.5
    endloop
  endfacet
  facet normal 0 0 1
    outer loop
      vertex 0.256094 2.43658 6.5
      vertex 0.256094 -2.43658 6.5
      vertex 0.757092 -2.33009 6.5
    endloop
  endfacet
  facet normal -0 0 1
    outer loop
      vertex -0.256094 2.43658 6.5
      vertex 0.256094 -2.43658 6.5
      vertex 0.256094 2.43658 6.5
    endloop
  endfacet
  facet normal 0 0 1
    outer loop
      vertex -0.256094 2.43658 6.5
      vertex -0.256094 -2.43658 6.5
      vertex 0.256094 -2.43658 6.5
    endloop
  endfacet
  facet normal -0 0 1
    outer loop
      vertex -0.757092 2.33009 6.5
      vertex -0.256094 -2.43658 6.5
      vertex -0.256094 2.43658 6.5
    endloop
  endfacet
  facet normal 0 0 1
    outer loop
      vertex -0.757092 2.33009 6.5
      vertex -0.757092 -2.33009 6.5
      vertex -0.256094 -2.43658 6.5
    endloop
  endfacet
  facet normal -0 0 1
    outer loop
      vertex -1.225 2.12176 6.5
      vertex -0.757092 -2.33009 6.5
      vertex -0.757092 2.33009 6.5
    endloop
  endfacet
  facet normal 0 0 1
    outer loop
      vertex -1.225 2.12176 6.5
      vertex -1.225 -2.12176 6.5
      vertex -0.757092 -2.33009 6.5
    endloop
  endfacet
  facet normal -0 0 1
    outer loop
      vertex -1.63937 1.8207 6.5
      vertex -1.225 -2.12176 6.5
      vertex -1.225 2.12176 6.5
    endloop
  endfacet
  facet normal 0 0 1
    outer loop
      vertex -1.63937 1.8207 6.5
      vertex -1.63937 -1.8207 6.5
      vertex -1.225 -2.12176 6.5
    endloop
  endfacet
  facet normal -0 0 1
    outer loop
      vertex -1.98209 1.44007 6.5
      vertex -1.63937 -1.8207 6.5
      vertex -1.63937 1.8207 6.5
    endloop
  endfacet
  facet normal 0 0 1
    outer loop
      vertex -1.98209 1.44007 6.5
      vertex -1.98209 -1.44007 6.5
      vertex -1.63937 -1.8207 6.5
    endloop
  endfacet
  facet normal -0 0 1
    outer loop
      vertex -2.23819 0.996504 6.5
      vertex -1.98209 -1.44007 6.5
      vertex -1.98209 1.44007 6.5
    endloop
  endfacet
  facet normal 0 0 1
    outer loop
      vertex -2.23819 0.996504 6.5
      vertex -2.23819 -0.996504 6.5
      vertex -1.98209 -1.44007 6.5
    endloop
  endfacet
  facet normal -0 0 1
    outer loop
      vertex -2.39646 0.509383 6.5
      vertex -2.23819 -0.996504 6.5
      vertex -2.23819 0.996504 6.5
    endloop
  endfacet
  facet normal 0 0 1
    outer loop
      vertex -2.39646 0.509383 6.5
      vertex -2.39646 -0.509383 6.5
      vertex -2.23819 -0.996504 6.5
    endloop
  endfacet
  facet normal 0 -0 1
    outer loop
      vertex -2.39646 -0.509383 6.5
      vertex -2.39646 0.509383 6.5
      vertex -2.45 0 6.5
    endloop
  endfacet
  facet normal -0.207911 0.978148 0
    outer loop
      vertex 0.757092 -2.33009 6.5
      vertex 0.256094 -2.43658 22.98
      vertex 0.757092 -2.33009 22.98
    endloop
  endfacet
  facet normal -0.207911 0.978148 0
    outer loop
      vertex 0.256094 -2.43658 22.98
      vertex 0.757092 -2.33009 6.5
      vertex 0.256094 -2.43658 6.5
    endloop
  endfacet
  facet normal -0.866019 0.50001 0
    outer loop
      vertex 1.98209 -1.44007 6.5
      vertex 2.23819 -0.996504 22.98
      vertex 2.23819 -0.996504 6.5
    endloop
  endfacet
  facet normal -0.866019 0.50001 0
    outer loop
      vertex 2.23819 -0.996504 22.98
      vertex 1.98209 -1.44007 6.5
      vertex 1.98209 -1.44007 22.98
    endloop
  endfacet
  facet normal 0.587789 0.809015 -0
    outer loop
      vertex -1.225 -2.12176 6.5
      vertex -1.63937 -1.8207 22.98
      vertex -1.225 -2.12176 22.98
    endloop
  endfacet
  facet normal 0.587789 0.809015 0
    outer loop
      vertex -1.63937 -1.8207 22.98
      vertex -1.225 -2.12176 6.5
      vertex -1.63937 -1.8207 6.5
    endloop
  endfacet
  facet normal 0.866019 0.50001 0
    outer loop
      vertex -1.98209 -1.44007 22.98
      vertex -2.23819 -0.996504 6.5
      vertex -2.23819 -0.996504 22.98
    endloop
  endfacet
  facet normal 0.866019 0.50001 0
    outer loop
      vertex -2.23819 -0.996504 6.5
      vertex -1.98209 -1.44007 22.98
      vertex -1.98209 -1.44007 6.5
    endloop
  endfacet
  facet normal 0.743146 0.66913 0
    outer loop
      vertex -1.63937 -1.8207 22.98
      vertex -1.98209 -1.44007 6.5
      vertex -1.98209 -1.44007 22.98
    endloop
  endfacet
  facet normal 0.743146 0.66913 0
    outer loop
      vertex -1.98209 -1.44007 6.5
      vertex -1.63937 -1.8207 22.98
      vertex -1.63937 -1.8207 6.5
    endloop
  endfacet
  facet normal -0.587789 0.809015 0
    outer loop
      vertex 1.63937 -1.8207 6.5
      vertex 1.225 -2.12176 22.98
      vertex 1.63937 -1.8207 22.98
    endloop
  endfacet
  facet normal -0.587789 0.809015 0
    outer loop
      vertex 1.225 -2.12176 22.98
      vertex 1.63937 -1.8207 6.5
      vertex 1.225 -2.12176 6.5
    endloop
  endfacet
  facet normal -0.406743 0.913543 0
    outer loop
      vertex 1.225 -2.12176 6.5
      vertex 0.757092 -2.33009 22.98
      vertex 1.225 -2.12176 22.98
    endloop
  endfacet
  facet normal -0.406743 0.913543 0
    outer loop
      vertex 0.757092 -2.33009 22.98
      vertex 1.225 -2.12176 6.5
      vertex 0.757092 -2.33009 6.5
    endloop
  endfacet
  facet normal -0.95106 0.309008 0
    outer loop
      vertex 2.23819 -0.996504 6.5
      vertex 2.39646 -0.509383 22.98
      vertex 2.39646 -0.509383 6.5
    endloop
  endfacet
  facet normal -0.95106 0.309008 0
    outer loop
      vertex 2.39646 -0.509383 22.98
      vertex 2.23819 -0.996504 6.5
      vertex 2.23819 -0.996504 22.98
    endloop
  endfacet
  facet normal 0.207911 0.978148 -0
    outer loop
      vertex -0.256094 -2.43658 6.5
      vertex -0.757092 -2.33009 22.98
      vertex -0.256094 -2.43658 22.98
    endloop
  endfacet
  facet normal 0.207911 0.978148 0
    outer loop
      vertex -0.757092 -2.33009 22.98
      vertex -0.256094 -2.43658 6.5
      vertex -0.757092 -2.33009 6.5
    endloop
  endfacet
  facet normal 0.95106 0.309008 0
    outer loop
      vertex -2.23819 -0.996504 22.98
      vertex -2.39646 -0.509383 6.5
      vertex -2.39646 -0.509383 22.98
    endloop
  endfacet
  facet normal 0.95106 0.309008 0
    outer loop
      vertex -2.39646 -0.509383 6.5
      vertex -2.23819 -0.996504 22.98
      vertex -2.23819 -0.996504 6.5
    endloop
  endfacet
  facet normal 0.994522 0.104532 0
    outer loop
      vertex -2.39646 -0.509383 22.98
      vertex -2.45 0 6.5
      vertex -2.45 0 22.98
    endloop
  endfacet
  facet normal 0.994522 0.104532 0
    outer loop
      vertex -2.45 0 6.5
      vertex -2.39646 -0.509383 22.98
      vertex -2.39646 -0.509383 6.5
    endloop
  endfacet
  facet normal -0.743146 0.66913 0
    outer loop
      vertex 1.63937 -1.8207 6.5
      vertex 1.98209 -1.44007 22.98
      vertex 1.98209 -1.44007 6.5
    endloop
  endfacet
  facet normal -0.743146 0.66913 0
    outer loop
      vertex 1.98209 -1.44007 22.98
      vertex 1.63937 -1.8207 6.5
      vertex 1.63937 -1.8207 22.98
    endloop
  endfacet
  facet normal 0.406743 0.913543 -0
    outer loop
      vertex -0.757092 -2.33009 6.5
      vertex -1.225 -2.12176 22.98
      vertex -0.757092 -2.33009 22.98
    endloop
  endfacet
  facet normal 0.406743 0.913543 0
    outer loop
      vertex -1.225 -2.12176 22.98
      vertex -0.757092 -2.33009 6.5
      vertex -1.225 -2.12176 6.5
    endloop
  endfacet
endsolid OpenSCAD_Model
